<svg preserveAspectRatio="none" width="100%" height="100%" overflow="visible" style="display: block;" viewBox="0 0 61.1 60.16" fill="none" xmlns="http://www.w3.org/2000/svg">
<g id="professional.svg">
<path id="Vector" d="M23.1879 45.1201C35.6475 45.1201 45.7479 35.0196 45.7479 22.5601C45.7479 10.1005 35.6475 6.01196e-05 23.1879 6.01196e-05C10.7284 6.01196e-05 0.627908 10.1005 0.627908 22.5601C0.627908 35.0196 10.7284 45.1201 23.1879 45.1201Z" fill="var(--fill-0, #FCCC00)"/>
<path id="Vector_2" d="M25.6931 25.0668H13.7515C10.0247 25.0668 7.60076 28.9887 9.26744 32.3221L18.0407 49.8688C18.89 51.5672 20.6259 52.6401 22.5248 52.6401H32.5959C33.0058 52.6401 33.4142 52.5898 33.8119 52.4904L43.2398 50.1334M25.6931 25.0668V12.5334C25.6931 9.76459 27.9376 7.52006 30.7064 7.52006H30.9457C32.198 7.52006 33.2131 8.53518 33.2131 9.78743C33.2131 11.5779 33.7431 13.3284 34.7363 14.8182L43.2398 27.5734V50.1334M25.6931 25.0668H30.7064M43.2398 50.1334H48.2531C51.0219 50.1334 53.2664 47.8888 53.2664 45.1201V30.0801C53.2664 27.3113 51.0219 25.0668 48.2531 25.0668H41.9864" stroke="url(#paint0_radial_2217_607)" stroke-width="3.008" stroke-linecap="round" stroke-linejoin="round"/>
</g>
<defs>
<radialGradient id="paint0_radial_2217_607" cx="0" cy="0" r="1" gradientUnits="userSpaceOnUse" gradientTransform="translate(8.08224 7.52007) rotate(45.0992) scale(78.9458 283.699)">
<stop offset="0.500518" stop-color="#002F43"/>
<stop offset="1"/>
</radialGradient>
</defs>
</svg>
