<svg preserveAspectRatio="none" width="100%" height="100%" overflow="visible" style="display: block;" viewBox="0 0 60.16 60.16" fill="none" xmlns="http://www.w3.org/2000/svg">
<g id="passionate.svg">
<path id="Vector" d="M22.56 45.12C35.0195 45.12 45.12 35.0195 45.12 22.56C45.12 10.1005 35.0195 0 22.56 0C10.1005 0 0 10.1005 0 22.56C0 35.0195 10.1005 45.12 22.56 45.12Z" fill="var(--fill-0, #FCCC00)"/>
<path id="Vector_2" d="M10.8238 15.8369C6.41873 20.2421 6.41873 27.3842 10.8238 31.7893L30.0801 51.0456L49.3362 31.7893C53.7413 27.3842 53.7413 20.2421 49.3362 15.8369C44.9311 11.4318 37.7889 11.4318 33.3838 15.8369L30.0801 19.1409L26.7762 15.8369C22.3711 11.4318 15.2289 11.4318 10.8238 15.8369Z" stroke="url(#paint0_radial_2217_756)" stroke-width="3.008" stroke-linecap="round" stroke-linejoin="round"/>
</g>
<defs>
<radialGradient id="paint0_radial_2217_756" cx="0" cy="0" r="1" gradientTransform="matrix(56.4588 47.7306 -203.593 170.931 6.86199 12.5331)" gradientUnits="userSpaceOnUse">
<stop offset="0.500518" stop-color="#002F43"/>
<stop offset="1"/>
</radialGradient>
</defs>
</svg>
