<svg preserveAspectRatio="none" width="100%" height="100%" overflow="visible" style="display: block;" viewBox="0 0 61.1 60.16" fill="none" xmlns="http://www.w3.org/2000/svg">
<g id="support.svg">
<path id="Vector" d="M22.872 45.1201C35.3316 45.1201 45.432 35.0196 45.432 22.5601C45.432 10.1005 35.3316 6.01196e-05 22.872 6.01196e-05C10.4125 6.01196e-05 0.312029 10.1005 0.312029 22.5601C0.312029 35.0196 10.4125 45.1201 22.872 45.1201Z" fill="var(--fill-0, #FCCC00)"/>
<path id="Vector_2" d="M51.4481 30.08C51.4481 41.7089 42.021 51.136 30.3921 51.136V54.144C43.6823 54.144 54.4561 43.3702 54.4561 30.08H51.4481ZM30.3921 51.136C18.7632 51.136 9.33611 41.7089 9.33611 30.08H6.32811C6.32811 43.3702 17.1019 54.144 30.3921 54.144V51.136ZM9.33611 30.08C9.33611 18.451 18.7632 9.02397 30.3921 9.02397V6.01597C17.1019 6.01597 6.32811 16.7898 6.32811 30.08H9.33611ZM30.3921 9.02397C42.021 9.02397 51.4481 18.451 51.4481 30.08H54.4561C54.4561 16.7898 43.6823 6.01597 30.3921 6.01597V9.02397ZM38.9148 30.08C38.9148 34.7869 35.099 38.6027 30.3921 38.6027V41.6107C36.7603 41.6107 41.9228 36.4482 41.9228 30.08H38.9148ZM30.3921 38.6027C25.6851 38.6027 21.8695 34.7869 21.8695 30.08H18.8615C18.8615 36.4482 24.0239 41.6107 30.3921 41.6107V38.6027ZM21.8695 30.08C21.8695 25.373 25.6851 21.5573 30.3921 21.5573V18.5493C24.0239 18.5493 18.8615 23.7118 18.8615 30.08H21.8695ZM30.3921 21.5573C35.099 21.5573 38.9148 25.373 38.9148 30.08H41.9228C41.9228 23.7118 36.7603 18.5493 30.3921 18.5493V21.5573ZM45.2809 13.0642L36.4185 21.9266L38.5455 24.0535L47.408 15.1911L45.2809 13.0642ZM36.4185 38.2333L45.2809 47.0958L47.408 44.9688L38.5455 36.1064L36.4185 38.2333ZM24.3656 21.9266L15.5032 13.0642L13.3763 15.1911L22.2387 24.0535L24.3656 21.9266ZM22.2387 36.1064L13.3763 44.9688L15.5032 47.0958L24.3656 38.2333L22.2387 36.1064Z" fill="var(--fill-0, #002F43)"/>
</g>
</svg>
